Patient4_TMGait_0pt7_02_right_19_EMG.mot
version=1
nRows=16
nColumns=33
inDegrees=no
endheader
time	1LAddLong	2LGlutMax	3LGlutMed	4LIliopsoas	5LSemiMemb	6LBicFemLong	7LRecFem	8LVastMed	9LVastLat	10LGasMed	11LTibAnt	12lTibPost	13LPeroneusLong	14LSol	15LExtDigLong	16LFlexDigLong	17RAddLong	18RGlutMax	19RGlutMed	20RIliopsoas	21RSemiMemb	22RBicFemLong	23RRecFem	24RVastMed	25RVastLat	26RGasMed	27RTibAnt	28RTibPost	29RPeroneusLong	30RSol	31RExtDigLong	32RFlexDigLong
21.75	-0.046692	0.74875	0.088196	0.004883	-0.10422	0.29098	-0.047607	-0.017548	0.21271	-0.027618	-0.042114	-0.009613	0.02533	-0.03418	0.026398	-0.002441	-0.006104	-0.10605	0.32257	0.02243	0.20096	-0.04364	-0.62943	0.019073	-0.008087	0.002747	0.036469	0.00061	-0.4332	0.052643	-0.005798	-0.014343
21.751	-0.06134	0.77621	0.008392	-0.023193	-0.17944	0.3122	-0.024109	-0.014343	-0.028076	-0.032959	-0.013123	-0.010223	0.036926	-0.021973	0.017395	-0.009308	-0.007782	-0.050201	0.28686	0.094452	0.20996	-0.016937	-0.59692	-0.010986	-0.010681	-0.007629	0.002136	-0.004578	-0.055695	0.037842	-0.001373	-0.025024
21.752	-0.047302	0.75317	-0.052948	0.012054	-0.20447	0.31448	-0.011444	-0.014801	-0.16449	-0.022888	0.016022	-0.009766	0.071106	-0.009613	0.00351	0.016022	-0.005188	-0.10147	0.17853	0.14938	0.22766	0.074768	-0.60074	-0.036011	-0.024261	-0.004883	-0.037231	-0.00412	0.060883	0.033569	-0.000763	-0.024109
21.753	-0.039368	0.81894	-0.073853	0.012665	-0.18494	0.14908	0.042725	-0.011139	-0.17548	-0.023499	0.026093	-0.00824	0.11475	-0.009155	-0.02121	0.001068	-0.005188	-0.049286	0.14236	0.085754	0.21744	0.090942	-0.62286	-0.023499	-0.024872	0.001526	-0.10864	0.000763	0.028381	0.023651	-0.003204	-0.020142
21.754	-0.014801	0.82459	-0.000458	0.012512	-0.12909	0.042877	0.030975	-0.007019	-0.16632	-0.006409	0.00473	-0.005341	0.16602	-0.003662	-0.010681	-0.00473	-0.048981	-0.034027	0.31387	0.042114	0.22064	0.027771	-0.58868	-0.004883	-0.023804	-0.000153	-0.082092	-0.002747	0.075378	0.075836	0.000305	-0.023804
21.755	-0.005646	0.80078	0.052032	-0.000305	-0.054016	-0.12863	-0.034637	-0.009155	-0.062256	-0.011444	0.000458	-0.003662	0.24368	-0.011902	0.009155	-0.007019	-0.050201	-0.06012	0.23224	0.075836	0.23102	-0.021667	-0.55267	-0.020905	-0.011597	-0.00824	0.047302	-0.004578	0.30975	0.081329	0.000763	-0.018616
21.756	0.014801	0.79895	-0.002441	-0.016785	-0.024872	-0.15518	-0.090332	0.001984	-0.078278	-0.019836	-0.007782	-0.001678	0.10925	-0.002441	0.015259	-0.003815	-0.046234	-0.085449	0.18677	0.035858	0.23926	0.029144	-0.59036	-0.013275	-0.010376	-0.008392	0.18982	-0.003204	-0.12436	-0.006714	0.000305	-0.031433
21.757	0.053864	0.74982	-0.0737	0.003204	0.062408	-0.13397	-0.10254	-0.002899	-0.047607	-0.003662	-0.011139	0.001678	-0.14542	-0.006866	0.022125	-0.000458	-0.027313	-0.09964	0.2504	0.015717	0.23987	0.050354	-0.56061	-0.006409	-0.009155	-0.007935	0.32349	-0.000305	-0.47379	-0.063171	0.009155	-0.024261
21.758	0.067291	0.63889	-0.054626	0.018311	0.11429	-0.19775	-0.072479	-0.029602	-0.054016	-0.021362	-0.007629	0.002899	-0.10315	-0.061493	0.010834	0.000153	-0.013885	-0.1152	0.44723	-0.045624	0.23148	0.038757	-0.55206	0.012054	-0.009918	-0.004272	0.27161	0.000763	-0.18845	-0.019531	-0.000458	-0.021667
21.759	0.055389	0.59296	0.025635	0.003815	0.18921	-0.16037	-0.049896	-0.032043	-0.068359	-0.027161	-0.02533	-0.001984	0.054321	-0.027161	-0.010376	0.003357	-0.017548	-0.068665	0.25726	0.016785	0.27878	0.045166	-0.56442	0.019379	-0.015411	-0.002441	-0.011139	0.001221	-0.031586	-0.010223	0.000305	-0.019531
21.76	0.047913	0.53909	0.019836	0.018158	0.14999	-0.031586	-0.08316	-0.022583	-0.057983	-0.020905	-0.049286	0.005188	0.10361	0.040283	0.008087	0.002899	0.012512	-0.005188	0.15915	-0.097656	0.30655	0.001984	-0.56305	-0.013275	-0.010529	-0.001221	-0.11978	-0.008392	-0.072174	-0.019379	0.000458	-0.013275
21.761	0.012054	0.46921	-0.000153	0.029449	0.094757	0.18906	-0.16312	-0.014954	0.087128	-0.007172	-0.024567	0.000305	0.10635	0.10971	0.032349	-0.002136	0.045471	-0.016632	0.15884	-0.22064	0.3064	-0.018616	-0.53055	-0.046844	-0.022125	0.007172	-0.097351	0.002594	0.11246	-0.041351	-0.00824	-0.01709
21.762	-0.028381	0.47226	-0.023193	0.014496	-0.015259	0.31403	-0.15396	-0.001221	0.27176	0.005341	-0.028229	0.005951	0.16449	0.08728	0.022583	0.009155	0.071259	0.008392	0.16083	-0.17014	0.31036	-0.019836	-0.52353	-0.014801	-0.028839	0.00885	-0.20935	0.000305	0.23789	-0.041962	-0.004578	-0.015717
21.763	-0.04425	0.47195	-0.028687	0.002899	-0.055084	0.13962	-0.04715	-0.006409	0.31326	-0.0177	-0.083618	0.002899	0.18723	0.028992	-0.016327	0.013123	0.080414	-0.041199	0.10819	-0.001984	0.35584	-0.047302	-0.61493	-0.011292	-0.02121	0.010376	0.18967	0.002289	0.35858	-0.018768	-0.003662	-0.015717
21.764	-0.024872	0.50934	-0.099487	0.000305	0.044708	0.062256	0.061493	-0.018616	0.25848	-0.006714	-0.17029	0.007935	-0.057831	0.046234	-0.029602	0.013885	0.079193	0.024719	0.14755	0.19867	0.35675	-0.10162	-0.61676	-0.019836	-0.007172	0.001526	0.73837	0.00061	-0.052032	-0.033722	-0.001678	-0.016785
21.765	-0.017853	0.53177	-0.091095	-0.011292	0.16068	0.1181	0.037842	-0.0383	0.22492	0.014191	-0.14557	0.011597	0.03891	0.022736	0.080109	0.014496	0.068665	0.021362	0.015259	0.19486	0.3093	-0.039063	-0.60608	0.006866	-0.016022	-0.003052	0.42572	-0.003815	-0.44327	-0.028534	-0.003052	-0.018616
